HIERARCHY
ROOT hip
{
	OFFSET 0.000000 0.000000 0.000000 
	CHANNELS 6 Xposition Yposition Zposition Zrotation Xrotation Yrotation
	JOINT abdomen
	{
		OFFSET 0.000000 3.402643 0.000000 
		CHANNELS 3 Zrotation Xrotation Yrotation
		JOINT chest
		{
			OFFSET 0.000000 8.438565 -0.680529 
			CHANNELS 3 Zrotation Xrotation Yrotation
			JOINT neck
			{
				OFFSET 0.000000 10.207942 -0.272212 
				CHANNELS 3 Zrotation Xrotation Yrotation
				JOINT head
				{
					OFFSET 0.000000 3.130431 0.000000 
					CHANNELS 3 Zrotation Xrotation Yrotation
					End Site
					{
						OFFSET 0.000000 3.130435 0.000000 
					}
				}
			}
			JOINT lCollar
			{
				OFFSET 3.470700 6.669187 -0.816635 
				CHANNELS 3 Zrotation Xrotation Yrotation
				JOINT lShldr
				{
					OFFSET 3.198488 0.000000 0.000000 
					CHANNELS 3 Zrotation Xrotation Yrotation
					JOINT lForeArm
					{
						OFFSET 10.139888 0.000000 0.000000 
						CHANNELS 3 Zrotation Xrotation Yrotation
						JOINT lHand
						{
							OFFSET 8.370511 0.000000 0.000000 
							CHANNELS 3 Zrotation Xrotation Yrotation
							End Site
							{
								OFFSET 4.083176 0.000000 0.000000 
							}
						}
					}
				}
			}
			JOINT rCollar
			{
				OFFSET -3.470700 6.669187 -0.816635 
				CHANNELS 3 Zrotation Xrotation Yrotation
				JOINT rShldr
				{
					OFFSET -3.198488 0.000000 0.000000 
					CHANNELS 3 Zrotation Xrotation Yrotation
					JOINT rForeArm
					{
						OFFSET -10.139888 0.000000 0.000000 
						CHANNELS 3 Zrotation Xrotation Yrotation
						JOINT rHand
						{
							OFFSET -8.370511 0.000000 0.000000 
							CHANNELS 3 Zrotation Xrotation Yrotation
							End Site
							{
								OFFSET -4.083176 0.000000 0.000000 
							}
						}
					}
				}
			}
		}
	}
	JOINT lThigh
	{
		OFFSET 5.308129 -1.633274 1.361059 
		CHANNELS 3 Zrotation Xrotation Yrotation
		JOINT lShin
		{
			OFFSET -2.041588 -20.007561 0.000000 
			CHANNELS 3 Zrotation Xrotation Yrotation
			JOINT lFoot
			{
				OFFSET 0.000000 -19.190928 -1.224953 
				CHANNELS 3 Zrotation Xrotation Yrotation
				End Site
				{
					OFFSET 0.000000 -2.449906 4.627600 
				}
			}
		}
	}
	JOINT rThigh
	{
		OFFSET -5.308129 -1.633274 1.361059 
		CHANNELS 3 Zrotation Xrotation Yrotation
		JOINT rShin
		{
			OFFSET 2.041588 -20.007561 0.000000 
			CHANNELS 3 Zrotation Xrotation Yrotation
			JOINT rFoot
			{
				OFFSET 0.000000 -19.190928 -1.224953 
				CHANNELS 3 Zrotation Xrotation Yrotation
				End Site
				{
					OFFSET 0.000000 -2.449906 4.627600 
				}
			}
		}
	}
}
MOTION
Frames: 18
Frame Time: 0.033333
0.269261 45.261581 0.460353 0.000000 13.984365 -0.371094 -0.490639 12.763219 -0.321292 -0.265692 7.070241 -0.426326 -0.000000 -0.000003 -0.000000 -0.000000 21.210943 -0.000000 6.545430 0.076294 2.367297 -32.518894 41.667076 -29.833948 -7.328250 28.202604 -80.490044 19.168800 -41.653561 0.347364 -6.671051 0.174446 -5.082589 -8.945462 50.080566 69.315239 6.994700 4.331221 77.881134 9.385767 -44.623489 14.412806 3.481534 -27.955992 2.481756 -3.623254 23.956593 -0.382875 0.265028 -10.364787 0.538935 -5.626188 -28.122501 -3.176166 2.995430 24.098143 0.207603 1.120240 -10.363397 -0.712557 
0.322035 44.775536 0.507785 -0.010151 15.839847 -0.602699 -0.615605 14.608565 -0.499028 -0.078754 7.246088 -0.595549 -0.000000 -0.000003 -0.000000 -0.000000 21.884768 -0.000000 -0.371769 -0.313766 1.689435 -33.878853 43.280796 -30.117701 -6.199795 26.741768 -76.809998 23.422127 -47.656109 3.686341 0.259061 -0.603329 -7.138955 -11.520914 46.363129 59.725735 6.056390 2.740837 84.564903 8.871811 -37.713837 14.323656 3.793566 -31.577484 2.915500 -3.960599 27.062897 -0.219288 0.526018 -11.640518 0.723066 -5.920224 -31.625732 -3.012095 3.363982 26.960468 0.080499 1.019351 -11.487579 -0.972597 
0.378114 43.834164 0.689824 -0.010245 17.587883 -0.719562 -0.816442 16.883150 -0.602718 -0.128182 7.939433 -0.763567 -0.000000 -0.000003 -0.000000 -0.000000 22.060549 -0.000000 -7.309901 -0.460398 0.619935 -22.411669 37.603817 -26.643883 -6.915114 28.378860 -86.423317 30.855341 -47.098721 13.271801 6.964756 -1.311070 -6.746722 -21.964708 43.379234 56.650188 8.482097 0.242783 91.875198 5.021177 -30.637554 10.016393 4.391073 -36.384628 3.650590 -4.430530 33.518749 -0.191356 0.698588 -15.070822 0.923701 -6.593852 -36.566380 -4.027377 3.747409 33.485382 0.087518 0.922248 -15.021698 -0.598428 
0.440435 43.014973 0.831147 -0.000000 19.218740 -0.751953 -1.004362 19.411303 -0.603834 -0.345996 8.935392 -0.864228 -0.000000 -0.000003 -0.000000 -0.000000 21.835938 -0.000000 -14.252545 -0.213181 -0.814010 -11.418979 31.424822 -23.030529 -6.979525 32.142113 -98.384422 33.003586 -42.670937 19.119585 13.717903 -1.626146 -5.350320 -23.915258 44.366653 56.517258 12.781268 -2.094090 95.633568 4.119403 -21.765024 2.337134 4.599847 -39.774326 4.082335 -4.643671 36.803394 -0.143547 0.802696 -16.583050 0.976824 -7.136421 -39.905193 -4.347550 4.059101 36.735912 0.036799 0.885477 -16.433290 -0.869154 
0.508880 42.728329 0.801773 -0.000000 20.712881 -0.703125 -0.968464 21.920994 -0.497791 -0.436238 9.941129 -0.754766 -0.000000 -0.000003 -0.000000 -0.000000 21.269529 -0.000000 -12.115706 0.137541 -2.587564 -13.200006 29.824137 -19.868395 -6.185409 34.106079 -104.454842 25.924541 -36.913708 16.314358 10.347047 -1.087856 -4.553518 -5.445823 48.463863 51.679153 16.085751 -4.626103 95.293213 12.597892 -9.467002 -5.610564 4.711523 -42.069550 4.287750 -4.812094 37.799942 -0.070873 0.893255 -16.782955 1.037276 -7.484512 -42.100628 -4.756557 3.988019 37.705845 0.045551 1.017455 -16.670807 -0.817915 
0.571117 42.716038 0.653102 0.000000 22.070303 -0.595703 -0.750020 24.295029 -0.335932 -0.377885 10.878673 -0.534213 -0.000000 -0.000003 -0.000000 -0.000000 20.449221 -0.000000 -2.093827 -0.233725 -4.313613 -24.356083 30.877163 -16.514643 -5.823397 33.745438 -105.773544 14.392897 -29.492371 10.224527 -1.421937 -0.174346 -4.012477 22.412334 52.904156 42.171963 18.029865 -6.823029 93.930634 25.985991 1.723118 -11.500993 4.616861 -43.987724 4.522162 -4.696557 38.312157 -0.168769 1.083559 -16.647768 0.943979 -7.966346 -44.093430 -5.542069 4.099494 38.373192 0.017243 0.959466 -16.799385 -0.634325 
0.611764 42.552776 0.481871 -0.000000 23.242178 -0.449219 -0.491101 26.512831 -0.191001 -0.279268 11.728377 -0.304607 -0.000000 -0.000003 -0.000000 -0.000000 19.433596 -0.000000 5.687613 -0.854575 -5.305791 -36.571110 30.655682 -12.753496 -5.878093 32.501572 -106.051071 2.135979 -20.327921 6.602408 -8.802758 0.164248 -3.068902 40.586353 54.850147 32.115295 19.399525 -7.169734 95.543777 34.095974 6.491977 -12.415549 4.810878 -45.691372 4.769860 -4.803884 38.615353 -0.148164 1.120366 -16.305807 0.761613 -8.336883 -45.722439 -5.803946 4.137570 38.605515 0.003934 1.030928 -16.474621 -0.874500 
0.623880 41.932686 0.353319 -0.010709 24.228495 -0.288574 -0.277924 28.544640 -0.111377 -0.190059 12.509701 -0.144379 -0.000000 -0.000003 -0.000000 -0.000000 18.300783 -0.000000 3.878528 -0.593505 -5.124965 -42.456692 26.333866 -9.062408 -6.291028 31.642115 -108.172302 -10.433249 -10.470705 8.404974 -2.908107 -0.215636 -1.706811 33.786606 53.764442 27.285872 20.686693 -4.595392 102.519989 30.302069 1.938296 -6.226497 4.953821 -48.049789 5.049069 -4.983372 40.547962 -0.022306 1.222358 -17.071835 0.684576 -8.748976 -48.275887 -6.210366 4.333440 40.955494 -0.066783 0.917545 -17.237696 -1.143105 
0.634301 41.027878 0.206668 -0.010786 25.117170 -0.132141 -0.147102 30.341719 -0.052665 -0.130410 13.222626 -0.058083 -0.000000 -0.000003 -0.000000 -0.000000 17.128904 -0.000000 -3.996654 0.065630 -3.175854 -42.797253 20.138763 -6.346489 -6.956982 31.170284 -111.460976 -23.500729 -1.900578 13.491926 9.515696 -0.425166 -0.963141 14.839252 52.011841 26.783136 21.365276 -0.883684 111.007545 22.874012 -7.143986 1.919211 5.626813 -51.677704 5.843296 -5.360599 45.381725 0.113577 1.393297 -19.019287 0.628040 -10.001637 -51.686958 -7.575369 4.557639 45.660530 -0.163500 0.974277 -19.216146 -1.023268 
0.678311 40.129921 -0.050362 -0.000000 25.996082 -0.000000 -0.080532 31.914047 -0.025798 -0.090541 13.896467 0.021745 -0.000000 -0.000003 -0.000000 -0.000000 15.996098 -0.000000 -11.696050 -0.282196 1.042355 -41.500488 15.745191 -4.931567 -7.822865 30.491930 -114.265450 -34.923912 3.404013 18.977621 17.759670 -0.954145 -2.306422 4.099872 51.954700 27.311989 21.811981 1.280239 115.769028 18.935282 -13.383293 5.573072 6.173413 -55.245754 6.561699 -5.737833 49.741142 0.164005 1.715619 -20.727600 0.811191 -11.371914 -55.238789 -8.844839 4.872286 50.221893 -0.324074 1.015315 -21.169388 -1.105245 
0.777236 39.478413 -0.470880 -0.000000 26.933582 0.087891 -0.046690 33.212872 -0.003729 -0.070615 14.521482 0.086065 -0.000000 -0.000003 -0.000000 -0.000000 14.970702 -0.000000 -14.207403 -1.860229 7.382886 -41.935379 16.022482 -5.111157 -8.852113 28.981451 -115.125824 -41.426846 4.474430 22.105436 14.208730 -1.857430 -6.635354 14.379400 55.065792 27.444235 23.004269 -0.075116 113.213242 20.408195 -12.012196 0.497663 6.539678 -58.337299 7.188898 -5.959684 52.583458 0.231640 2.011389 -21.376482 1.018176 -12.826275 -58.197754 -10.345689 5.031116 52.969460 -0.420560 1.130518 -21.837820 -0.983157 
0.896587 39.105015 -0.951291 -0.000000 27.861320 0.136719 0.011804 34.169926 -0.016393 0.010105 14.892582 0.046231 -0.000000 -0.000003 -0.000000 -0.000000 14.150393 -0.000000 -12.421152 -3.045876 13.917285 -43.193081 20.796459 -8.067864 -10.123496 26.630667 -113.526550 -42.898735 2.692765 21.789862 4.391916 -1.128412 -12.287522 28.784077 59.793934 32.811077 24.423637 -4.232400 106.276466 25.823650 -7.322279 -6.307269 6.691830 -60.584358 7.539731 -6.079802 53.440025 0.308029 2.209473 -20.877516 1.099802 -14.190487 -60.455948 -11.621695 5.180109 54.069691 -0.525374 1.302556 -21.362492 -0.926662 
0.987916 38.989380 -1.348827 -0.000000 28.662100 0.156250 0.142501 34.677647 -0.081057 0.222191 14.775285 -0.251941 -0.000000 -0.000003 -0.000000 -0.000000 13.652344 -0.000000 -8.968541 -2.811234 18.030777 -41.865894 28.673187 -15.841801 -11.669638 23.670513 -109.199989 -41.008575 -0.382806 17.562681 -4.779818 1.155674 -16.172609 20.351833 61.577393 52.567425 25.323000 -9.416939 99.375359 29.942999 -6.342974 -5.536645 6.752984 -62.110851 7.725374 -6.156070 53.378101 0.433287 2.412146 -20.063047 1.060178 -15.128503 -61.860626 -12.617736 5.197463 53.940205 -0.514389 1.419179 -20.564137 -0.796859 
1.014125 39.103176 -1.551291 -0.011194 29.257811 0.151955 0.344904 34.804199 -0.196864 0.513786 14.218207 -0.731580 -0.000000 -0.000003 -0.000000 -0.000000 13.554688 -0.000000 -6.126427 -1.743111 17.057249 -36.794094 34.845222 -27.061472 -12.994534 20.811043 -104.106529 -38.311737 -2.521621 11.619444 -4.221100 0.866016 -15.844693 -7.033426 55.379147 73.001801 25.775311 -13.134315 96.486603 29.400372 -10.948622 5.115006 6.775029 -62.580997 7.818008 -6.066274 52.397427 0.272432 2.386480 -19.201321 1.164822 -15.339493 -62.313393 -12.939735 5.080165 52.976368 -0.455345 1.411848 -19.782799 -0.771428 
0.983479 39.386055 -1.568762 -0.011243 29.697269 0.122756 0.405478 35.028614 -0.232684 0.604091 14.081285 -0.859770 -0.000000 -0.000003 -0.000000 -0.000000 13.769533 -0.000000 -4.918267 -0.794454 10.507633 -43.095810 31.815590 -25.140570 -13.105659 19.784380 -105.575523 -37.729504 0.041766 13.403004 -1.827019 -0.027480 -9.594854 -2.125553 56.539112 65.035355 25.394642 -12.740241 99.595924 25.711176 -8.389756 5.849336 6.670635 -62.213665 7.698639 -5.888423 50.693005 0.251339 2.223183 -18.342913 0.905937 -14.921079 -62.000317 -12.546227 4.961172 51.217373 -0.383032 1.409559 -18.805952 -0.796873 
0.915593 39.769657 -1.441890 -0.011279 30.019505 0.074002 0.323591 35.429253 -0.177820 0.473859 14.394067 -0.645065 -0.000000 -0.000003 -0.000000 -0.000000 14.218749 -0.000000 -4.892226 -0.082996 1.654105 -55.497364 21.642746 -14.678629 -12.570809 20.248400 -111.780060 -40.015656 5.499853 21.378498 0.690681 -0.261212 -0.595668 33.182877 58.290409 31.410616 24.136488 -9.685343 106.498672 21.840557 0.630034 -3.206840 6.585326 -61.331722 7.546618 -5.653834 48.495033 0.010327 2.005298 -17.374931 0.925198 -14.126335 -61.130936 -11.784232 4.822197 49.116135 -0.294943 1.337418 -17.778067 -0.923635 
0.830077 40.185631 -1.211326 -0.011313 30.312489 0.015476 0.156759 35.917866 -0.082193 0.232437 14.911997 -0.294151 -0.000000 -0.000003 -0.000000 -0.000000 14.785154 -0.000000 -5.347479 0.503860 -5.357373 -63.483826 9.664624 -5.409024 -11.944655 21.190840 -118.171028 -44.505196 10.356012 30.638308 3.188817 0.224684 6.649811 64.820206 48.719585 -0.488472 22.166147 -6.341250 114.045891 22.815485 10.567653 -15.583476 6.434487 -60.100842 7.300056 -5.454512 46.344688 0.087544 1.725461 -16.802286 0.643428 -13.209467 -60.040577 -10.996768 4.708552 46.778030 -0.233199 1.133524 -17.067678 -1.091167 
0.746543 40.565624 -0.917718 -0.000000 30.634754 -0.068359 -0.012137 36.425770 -0.002560 -0.000000 15.371096 -0.000000 -0.000000 -0.000003 -0.000000 -0.000000 15.380860 -0.000000 -5.664841 0.573993 -6.442857 -66.199768 4.654458 -2.302518 -11.958755 21.361116 -120.104668 -47.430374 12.426571 35.634762 5.641862 0.692090 7.667533 74.507408 40.070431 -12.689884 20.361940 -4.245751 118.754585 26.820446 15.770969 -24.841051 6.536459 -59.525528 7.385201 -5.266621 45.118706 -0.094416 1.607386 -16.342594 0.664873 -12.643036 -59.558544 -10.463548 4.652246 45.624039 -0.214111 1.071990 -16.821278 -1.121612 
